<?xml version="1.0" encoding="UTF-8"?>
<svg id="Layer_1" data-name="Layer 1" xmlns="http://www.w3.org/2000/svg" viewBox="0 0 191.15 257.67">
  <defs>
    <style>
      .cls-1 {
        fill: #5f0053;
      }

      .cls-1, .cls-2, .cls-3, .cls-4, .cls-5, .cls-6 {
        stroke-width: 0px;
      }

      .cls-2 {
        fill: #740062;
      }

      .cls-3 {
        fill: #57d9fd;
      }

      .cls-4, .cls-7 {
        fill: #231f20;
      }

      .cls-7 {
        stroke: #231f20;
        stroke-miterlimit: 10;
        stroke-width: 3px;
      }

      .cls-5 {
        fill: #2a93fb;
      }

      .cls-6 {
        fill: #d7ffff;
      }
    </style>
  </defs>
  <g>
    <path class="cls-6" d="M95.26,37.24c0,1.6-1.3,2.9-2.9,2.9s-2.9-1.3-2.9-2.9,1.3-2.9,2.9-2.9,2.9,1.3,2.9,2.9Z"/>
    <g>
      <path class="cls-5" d="M81.61,19.18c-.47.06-.96.21-1.43.44-.61.3-1.16.74-1.51,1.25-.3.44-.44.94-.34,1.48L62.33,0l19.28,19.18Z"/>
      <path class="cls-5" d="M76.66,20.01s1.9,3.55.49,7.16c0,0,3.13-7.25,9.62-7.54,0,0-4.04-.04-7.12-2.4l-3,2.78Z"/>
      <path class="cls-6" d="M82.99,19.81c-1.27.24-3.53,1.44-4.32,3.39-1.34-4.65-5.92-10.21-9.65-15.33,3.81,4.29,8.68,9.98,13.97,11.94Z"/>
    </g>
    <g>
      <path class="cls-5" d="M109.97,49.49c-.1.46-.31.93-.59,1.37-.36.58-.85,1.08-1.41,1.37-.47.25-.99.34-1.51.18l20.55,18.27-17.05-21.19Z"/>
      <path class="cls-5" d="M108.62,54.33s-3.33-2.26-7.07-1.24c0,0,7.54-2.35,8.51-8.78,0,0-.39,4.02,1.63,7.33l-3.08,2.69Z"/>
      <path class="cls-6" d="M109.49,48.06c-.37,1.24-1.81,3.36-3.83,3.94,4.48,1.82,8.95,6.37,13.65,10.62-3.87-4.24-8.43-9.1-9.83-14.56Z"/>
    </g>
    <g>
      <path class="cls-5" d="M105.03,23.22c.3.08.62.23.9.43.38.26.7.6.88.98.15.32.2.67.08,1.02l12.85-13.24-14.71,10.81Z"/>
      <path class="cls-5" d="M108.24,24.26s-1.61,2.17-1.04,4.7c0,0-1.36-5.12-5.64-5.96,0,0,2.68.38,4.96-.88l1.71,2.14Z"/>
      <path class="cls-6" d="M104.06,23.5c.82.28,2.2,1.31,2.53,2.68,1.65-3.57,4.22-5.59,7.52-8.84-2.9,2.72-6.23,5.98-10.05,6.16Z"/>
    </g>
    <g>
      <path class="cls-5" d="M78.03,47.78c.03.31.13.65.27.96.19.41.48.79.82,1.03.29.2.63.31.99.25l-15.23,10.42,13.15-12.66Z"/>
      <path class="cls-5" d="M78.52,51.12s2.41-1.22,4.81-.23c0,0-4.82-2.21-4.92-6.57,0,0-.08,2.71-1.71,4.74l1.82,2.05Z"/>
      <path class="cls-6" d="M78.47,46.86c.14.86.92,2.39,2.21,2.95-3.8,1.02-6.23,3.21-9.99,5.91,3.17-2.4,6.96-5.12,7.78-8.86Z"/>
    </g>
    <path class="cls-6" d="M106.33,31.67c.36.9.62,1.84.8,2.8.17.95.24,1.92.21,2.89-.06,1.93-.51,3.83-1.29,5.56-.39.87-.87,1.69-1.41,2.46-.54.77-1.17,1.49-1.84,2.14-.67.66-1.42,1.24-2.2,1.75-.78.51-1.62.95-2.48,1.31-1.73.72-3.6,1.1-5.48,1.12-1.88.02-3.76-.33-5.51-1.03-.87-.35-1.72-.78-2.51-1.29-.8-.51-1.54-1.1-2.22-1.76-1.37-1.31-2.48-2.9-3.25-4.65-.77-1.75-1.2-3.66-1.24-5.58-.04-1.93.29-3.87,1-5.68.71-1.81,1.78-3.48,3.14-4.88,1.36-1.4,3.01-2.53,4.82-3.3.9-.38,1.84-.68,2.81-.88.96-.2,1.95-.3,2.93-.3.98,0,1.97.1,2.93.29.96.19,1.91.49,2.81.86,1.81.77,3.46,1.89,4.83,3.29,1.37,1.4,2.45,3.07,3.17,4.87ZM105.33,32.09c-.72-1.66-1.76-3.16-3.05-4.41-1.29-1.25-2.81-2.24-4.47-2.9-1.65-.67-3.44-1.01-5.22-1.01-1.78,0-3.56.35-5.22,1.02-3.32,1.32-6.08,4.01-7.51,7.33-.72,1.66-1.13,3.46-1.16,5.28-.04,1.82.29,3.65.95,5.37.67,1.71,1.68,3.3,2.96,4.63,1.29,1.33,2.84,2.41,4.56,3.14,1.72.73,3.58,1.13,5.45,1.13.94,0,1.87-.08,2.79-.27.92-.18,1.82-.46,2.68-.81.86-.36,1.69-.81,2.46-1.34.77-.53,1.49-1.14,2.13-1.81.65-.67,1.22-1.42,1.71-2.2.49-.79.9-1.63,1.22-2.49.64-1.73.94-3.58.88-5.39-.03-.91-.15-1.81-.35-2.7-.2-.88-.48-1.75-.84-2.57Z"/>
  </g>
  <circle class="cls-1" cx="36.39" cy="90.14" r="36.39"/>
  <circle class="cls-1" cx="154.77" cy="90.14" r="36.39"/>
  <circle class="cls-2" cx="95.41" cy="170.85" r="86.81"/>
  <g>
    <path class="cls-5" d="M88.19,147.7l-8.75-18.12-15.62-6.87c-2.01-5.46-10.32-14.26-17.58-22.5l21.45,20c4.8,4.32,11.68,6.05,20.5,5.36-2.69,4.31-2.31,12.12,0,22.14Z"/>
    <path class="cls-5" d="M88.19,165.82l-11.87,11.4s8.12-2.97,11.87,0c3.75,2.97,5,14.48,5,14.48v-25.89l-5,7.29v-7.29Z"/>
    <path class="cls-5" d="M76.32,188.03l-19.37,14.92,14.8-4.64-25.51,42.49c11.1-17.55,21.67-36.15,38.52-42.49,0,0-9.06,3.12-8.44-1.25.62-4.37,0-9.03,0-9.03Z"/>
    <path class="cls-5" d="M131.62,154.77c2.81.2-6.9,18.34-6.9,18.34,10.65-19.26,22.32-35.92,35.96-47.55-12.75,7.62-32.97,31.05-42.3,30.95-7.56-.09-6.35-14.44-6.35-14.44l-6.34,31.04s9.78-11.85,22.48-16.6"/>
    <path class="cls-5" d="M105.69,184.57s-.21,10-4.58,13.12c0,0,6.46-3.54,11.04-1.67,4.58,1.87,23.75,21.04,23.75,21.04,0,0-19.34-17.82-19.58-23.13-.16-3.42,8.91,2.03,8.91,2.03,0,0-12.24-8.49-13.07-9.11-.83-.62,3.12,6.67,0,5.83-3.12-.83-6.46-8.12-6.46-8.12Z"/>
    <path class="cls-3" d="M84.75,136.76s-1.95-6.72-2.5-7.73c-.55-1.02-12.69-4.35-16.48-7.11,0,0,11.56,5.08,15.39,5.31,3.83.23,4.84-.39,4.84-.39,0,0-2.12,4.3-1.25,9.92Z"/>
    <path class="cls-3" d="M111.23,153.09s-.31,9.3-2.5,13.59c0,0,16.33-11.59,21.53-13.05,5.21-1.46,2.92,3.12,2.92,3.12,0,0,8.12-13.64,10.73-15.94,0,0-7.29,9.06-10.73,10.31-3.44,1.25-16.35,8.23-19.79,10.1l-2.16-8.15Z"/>
    <path class="cls-3" d="M86,170.3l-3.44,3.65s7.19-.52,9.27,7.08v-10.1s-.62,4.27-2.08,3.96c-1.46-.31-4.29-1.68-3.75-4.58Z"/>
    <path class="cls-3" d="M65.77,198l8.57-6.3s-1.86,5.29,1.04,7.55l-9.61,11.77,7.63-12.19s-1.76-1.51-1.04-3.85l-6.59,3.02Z"/>
    <path class="cls-3" d="M106.94,188.94s.62,3.44-1.25,5.1c0,0,6.46-.62,9.27,2.08,0,0,.02-4.44,2.08-4.42,0,0-2.66-1.06-2.92,2.13,0,0-3.54.52-4.9-1.3-1.35-1.82-2.29-3.59-2.29-3.59Z"/>
  </g>
  <path class="cls-4" d="M126.78,189.24c14.62,8.88,36.67-11.71,37.93-12.92,22.2-21.2,21.37-57.85,15.37-59.98-4.12-1.46-7.39,14.5-25.54,24.12-15.83,8.39-25.44,2.65-32.51,10.95-8.27,9.71-6.52,30.98,4.75,37.83Z"/>
  <path class="cls-7" d="M64.37,189.24c-14.62,8.88-36.67-11.71-37.93-12.92-22.2-21.2-21.37-57.85-15.37-59.98,4.12-1.46,7.39,14.5,25.54,24.12,15.83,8.39,25.44,2.65,32.51,10.95,8.27,9.71,6.52,30.98-4.75,37.83Z"/>
</svg>