<?xml version="1.0" encoding="UTF-8"?>
<svg id="Layer_1" data-name="Layer 1" xmlns="http://www.w3.org/2000/svg" viewBox="0 0 183.26 185.76">
  <defs>
    <style>
      .cls-1 {
        fill: #808285;
      }

      .cls-1, .cls-2, .cls-3 {
        stroke-width: 0px;
      }

      .cls-2 {
        fill: #58595b;
      }

      .cls-3 {
        fill: #231f20;
      }
    </style>
  </defs>
  <circle class="cls-3" cx="30.45" cy="30.45" r="30.45"/>
  <circle class="cls-1" cx="30.45" cy="30.45" r="25.45"/>
  <circle class="cls-3" cx="152.81" cy="30.45" r="30.45"/>
  <circle class="cls-1" cx="152.81" cy="30.45" r="25.45"/>
  <circle class="cls-3" cx="143.22" cy="71.66" r="39.54"/>
  <circle class="cls-1" cx="143.22" cy="71.66" r="36.54"/>
  <circle class="cls-3" cx="39.63" cy="71.66" r="39.54"/>
  <circle class="cls-1" cx="39.63" cy="71.66" r="36.54"/>
  <circle class="cls-3" cx="88.83" cy="112.76" r="73"/>
  <circle class="cls-2" cx="88.83" cy="112.76" r="70.33"/>
  <path class="cls-3" d="M112.81,137.29c14.62,9,36.67-11.87,37.93-13.09,22.2-21.48,21.37-58.62,15.37-60.78-4.12-1.48-7.39,14.7-25.54,24.44-15.83,8.5-25.44,2.69-32.51,11.1-8.27,9.84-6.52,31.4,4.75,38.33Z"/>
  <path class="cls-3" d="M66.26,137.29c-14.62,9-36.67-11.87-37.93-13.09C6.13,102.72,6.95,65.58,12.96,63.42c4.12-1.48,7.39,14.7,25.54,24.44,15.83,8.5,25.44,2.69,32.51,11.1,8.27,9.84,6.52,31.4-4.75,38.33Z"/>
</svg>