<?xml version="1.0" encoding="UTF-8"?>
<svg id="Layer_1" data-name="Layer 1" xmlns="http://www.w3.org/2000/svg" viewBox="0 0 191.15 238.6">
  <defs>
    <style>
      .cls-1 {
        fill: #5f0053;
      }

      .cls-1, .cls-2, .cls-3, .cls-4, .cls-5 {
        stroke-width: 0px;
      }

      .cls-2 {
        fill: #740062;
      }

      .cls-3 {
        fill: #57d9fd;
      }

      .cls-6 {
        fill: #231f20;
        stroke: #231f20;
        stroke-miterlimit: 10;
        stroke-width: 3px;
      }

      .cls-4 {
        fill: #2a93fb;
      }

      .cls-5 {
        fill: #d7ffff;
      }
    </style>
  </defs>
  <circle class="cls-1" cx="36.39" cy="71.07" r="36.39"/>
  <circle class="cls-1" cx="154.77" cy="71.07" r="36.39"/>
  <circle class="cls-2" cx="95.41" cy="151.78" r="86.81"/>
  <g>
    <path class="cls-4" d="M88.19,128.63l-8.75-18.12-15.62-6.87c-2.01-5.46-10.32-14.26-17.58-22.5l21.45,20c4.8,4.32,11.68,6.05,20.5,5.36-2.69,4.31-2.31,12.12,0,22.14Z"/>
    <path class="cls-4" d="M88.19,146.75l-11.87,11.4s8.12-2.97,11.87,0c3.75,2.97,5,14.48,5,14.48v-25.89l-5,7.29v-7.29Z"/>
    <path class="cls-4" d="M76.32,168.97l-19.37,14.92,14.8-4.64-25.51,42.49c11.1-17.55,21.67-36.15,38.52-42.49,0,0-9.06,3.12-8.44-1.25.62-4.37,0-9.03,0-9.03Z"/>
    <path class="cls-4" d="M131.62,135.7c2.81.2-6.9,18.34-6.9,18.34,10.65-19.26,22.32-35.92,35.96-47.55-12.75,7.62-32.97,31.05-42.3,30.95-7.56-.09-6.35-14.44-6.35-14.44l-6.34,31.04s9.78-11.85,22.48-16.6"/>
    <path class="cls-4" d="M105.69,165.5s-.21,10-4.58,13.12c0,0,6.46-3.54,11.04-1.67,4.58,1.87,23.75,21.04,23.75,21.04,0,0-19.34-17.82-19.58-23.13-.16-3.42,8.91,2.03,8.91,2.03,0,0-12.24-8.49-13.07-9.11-.83-.62,3.12,6.67,0,5.83-3.12-.83-6.46-8.12-6.46-8.12Z"/>
    <path class="cls-3" d="M84.75,117.69s-1.95-6.72-2.5-7.73c-.55-1.02-12.69-4.35-16.48-7.11,0,0,11.56,5.08,15.39,5.31,3.83.23,4.84-.39,4.84-.39,0,0-2.12,4.3-1.25,9.92Z"/>
    <path class="cls-3" d="M111.23,134.02s-.31,9.3-2.5,13.59c0,0,16.33-11.59,21.53-13.05,5.21-1.46,2.92,3.12,2.92,3.12,0,0,8.12-13.64,10.73-15.94,0,0-7.29,9.06-10.73,10.31-3.44,1.25-16.35,8.23-19.79,10.1l-2.16-8.15Z"/>
    <path class="cls-3" d="M86,151.23l-3.44,3.65s7.19-.52,9.27,7.08v-10.1s-.62,4.27-2.08,3.96c-1.46-.31-4.29-1.68-3.75-4.58Z"/>
    <path class="cls-3" d="M65.77,178.94l8.57-6.3s-1.86,5.29,1.04,7.55l-9.61,11.77,7.63-12.19s-1.76-1.51-1.04-3.85l-6.59,3.02Z"/>
    <path class="cls-3" d="M106.94,169.87s.62,3.44-1.25,5.1c0,0,6.46-.62,9.27,2.08,0,0,.02-4.44,2.08-4.42,0,0-2.66-1.06-2.92,2.13,0,0-3.54.52-4.9-1.3-1.35-1.82-2.29-3.59-2.29-3.59Z"/>
  </g>
  <path class="cls-6" d="M127.84,168.76c13.96,8.53,35.02-11.25,36.23-12.41,21.2-20.36,20.41-55.55,14.68-57.59-3.94-1.4-7.06,13.92-24.4,23.16-15.12,8.06-24.3,2.55-31.05,10.52-7.9,9.33-6.23,29.75,4.54,36.32Z"/>
  <path class="cls-6" d="M63.31,168.76c-13.96,8.53-35.02-11.25-36.23-12.41-21.2-20.36-20.41-55.55-14.68-57.59,3.94-1.4,7.06,13.92,24.4,23.16,15.12,8.06,24.3,2.55,31.05,10.52,7.9,9.33,6.23,29.75-4.54,36.32Z"/>
  <g>
    <path class="cls-5" d="M93.6,25.88c0,1.11-.9,2.02-2.01,2.02s-2.02-.9-2.02-2.01.9-2.02,2.01-2.02,2.02.9,2.02,2.01Z"/>
    <g>
      <path class="cls-4" d="M84.12,13.33c-.32.04-.67.14-.99.3-.42.21-.81.51-1.05.87-.21.31-.31.66-.24,1.03L70.72,0l13.4,13.33Z"/>
      <path class="cls-4" d="M80.67,13.9s1.32,2.47.34,4.97c0,0,2.18-5.03,6.68-5.24,0,0-2.8-.03-4.95-1.66l-2.08,1.93Z"/>
      <path class="cls-5" d="M85.07,13.76c-.88.16-2.45,1-3,2.36-.93-3.23-4.11-7.1-6.7-10.65,2.64,2.98,6.03,6.93,9.71,8.3Z"/>
    </g>
    <g>
      <path class="cls-4" d="M103.82,34.38c-.07.32-.21.65-.41.95-.25.4-.59.75-.98.95-.33.17-.68.23-1.05.13l14.27,12.69-11.84-14.72Z"/>
      <path class="cls-4" d="M102.88,37.75s-2.32-1.57-4.91-.86c0,0,5.24-1.64,5.91-6.1,0,0-.27,2.79,1.14,5.09l-2.14,1.87Z"/>
      <path class="cls-5" d="M103.48,33.39c-.26.86-1.25,2.33-2.66,2.74,3.11,1.26,6.22,4.43,9.48,7.38-2.69-2.94-5.86-6.32-6.83-10.12Z"/>
    </g>
    <g>
      <path class="cls-4" d="M100.39,16.13c.21.06.43.16.63.3.26.18.49.42.61.68.11.22.14.47.05.71l8.93-9.2-10.22,7.51Z"/>
      <path class="cls-4" d="M102.62,16.86s-1.12,1.51-.72,3.27c0,0-.94-3.56-3.92-4.14,0,0,1.86.26,3.45-.61l1.19,1.49Z"/>
      <path class="cls-5" d="M99.71,16.33c.57.2,1.53.91,1.76,1.86,1.15-2.48,2.93-3.89,5.23-6.14-2.02,1.89-4.33,4.16-6.99,4.28Z"/>
    </g>
    <g>
      <path class="cls-4" d="M81.63,33.2c.02.22.09.45.19.67.13.29.33.55.57.72.2.14.44.21.69.17l-10.58,7.24,9.14-8.8Z"/>
      <path class="cls-4" d="M81.96,35.51s1.68-.85,3.34-.16c0,0-3.35-1.53-3.42-4.56,0,0-.06,1.88-1.19,3.3l1.26,1.43Z"/>
      <path class="cls-5" d="M81.94,32.56c.1.6.64,1.66,1.54,2.05-2.64.71-4.33,2.23-6.94,4.11,2.2-1.67,4.83-3.56,5.41-6.16Z"/>
    </g>
    <path class="cls-5" d="M101.29,22.01c.25.63.43,1.28.55,1.94.12.66.17,1.34.15,2.01-.04,1.34-.35,2.66-.9,3.86-.27.6-.6,1.18-.98,1.71-.38.54-.81,1.03-1.28,1.49-.47.46-.98.86-1.53,1.22-.55.36-1.12.66-1.72.91-1.2.5-2.5.77-3.8.78-1.3.01-2.61-.23-3.83-.72-.61-.24-1.19-.54-1.75-.9-.55-.35-1.07-.76-1.55-1.22-.95-.91-1.72-2.01-2.26-3.23-.54-1.21-.84-2.54-.86-3.88-.03-1.34.2-2.69.7-3.95.5-1.25,1.24-2.42,2.18-3.39.95-.97,2.09-1.76,3.35-2.29.63-.26,1.28-.47,1.95-.61.67-.14,1.35-.21,2.03-.21.68,0,1.37.07,2.04.2.67.13,1.32.34,1.95.6,1.26.53,2.4,1.31,3.35,2.28.95.97,1.7,2.13,2.2,3.39ZM100.6,22.3c-.5-1.15-1.22-2.2-2.12-3.06-.89-.87-1.95-1.56-3.11-2.02-1.15-.46-2.39-.7-3.62-.7-1.24,0-2.47.24-3.62.71-2.31.92-4.22,2.79-5.22,5.09-.5,1.15-.78,2.4-.81,3.67-.03,1.26.2,2.54.66,3.73.47,1.19,1.16,2.29,2.06,3.22.9.92,1.98,1.68,3.17,2.18,1.19.51,2.49.78,3.79.79.65,0,1.3-.06,1.94-.18.64-.13,1.26-.32,1.87-.57.6-.25,1.18-.56,1.71-.93.54-.37,1.03-.79,1.48-1.26.45-.47.84-.98,1.19-1.53.34-.55.62-1.13.85-1.73.45-1.2.65-2.48.61-3.75-.02-.63-.1-1.26-.24-1.87-.14-.61-.33-1.21-.59-1.79Z"/>
  </g>
</svg>