<?xml version="1.0" encoding="UTF-8"?>
<svg id="Layer_1" data-name="Layer 1" xmlns="http://www.w3.org/2000/svg" viewBox="0 0 181.26 183.59">
  <defs>
    <style>
      .cls-1 {
        stroke-width: 5px;
      }

      .cls-1, .cls-2, .cls-3, .cls-4 {
        stroke: #231f20;
        stroke-miterlimit: 10;
      }

      .cls-1, .cls-4 {
        fill: #808285;
      }

      .cls-2 {
        fill: #58595b;
      }

      .cls-2, .cls-3, .cls-4 {
        stroke-width: 3px;
      }

      .cls-3 {
        fill: #231f20;
      }
    </style>
  </defs>
  <circle class="cls-1" cx="29.45" cy="29.45" r="26.95"/>
  <circle class="cls-1" cx="151.81" cy="29.45" r="26.95"/>
  <circle class="cls-4" cx="142.22" cy="70.66" r="36.54"/>
  <circle class="cls-4" cx="38.63" cy="70.66" r="36.54"/>
  <circle class="cls-2" cx="87.83" cy="111.76" r="70.33"/>
  <path class="cls-3" d="m112.86,134.41c13.96,8.53,35.02-11.25,36.23-12.41,21.2-20.36,20.41-55.55,14.68-57.59-3.94-1.4-7.06,13.92-24.4,23.16-15.12,8.06-24.3,2.55-31.05,10.52-7.9,9.33-6.23,29.75,4.54,36.32Z"/>
  <path class="cls-3" d="m58.3,135.32c-14.97,6.6-33.23-15.78-34.27-17.09-18.32-22.98-12.88-57.76-6.93-59.03,4.09-.87,5.16,14.74,21.12,26.18,13.92,9.99,23.75,5.74,29.39,14.54,6.59,10.29,2.24,30.31-9.31,35.4Z"/>
</svg>