<?xml version="1.0" encoding="UTF-8"?>
<svg id="Layer_1" data-name="Layer 1" xmlns="http://www.w3.org/2000/svg" viewBox="0 0 234.04 159.86">
  <defs>
    <style>
      .cls-1 {
        fill: #939598;
      }

      .cls-2 {
        fill: #6d6e71;
      }

      .cls-3 {
        fill: #fbb040;
      }

      .cls-4 {
        fill: #808285;
      }
    </style>
  </defs>
  <polygon class="cls-2" points="151.33 29.4 103.58 77.15 121.06 142.38 186.29 159.86 234.04 112.11 216.56 46.88 151.33 29.4"/>
  <polygon class="cls-1" points="157.7 53.18 127.36 83.52 138.46 124.98 179.92 136.09 210.27 105.74 199.16 64.28 157.7 53.18"/>
  <polygon class="cls-3" points="175.77 87.67 166.26 85.12 159.3 92.08 161.85 101.59 171.36 104.14 178.32 97.18 175.77 87.67"/>
  <polygon class="cls-4" points="132.95 7.04 48.38 0 0 69.71 36.18 146.47 120.75 153.52 169.13 83.8 132.95 7.04"/>
  <polygon class="cls-1" points="117.45 29.38 59.98 24.59 27.1 71.97 51.68 124.14 109.15 128.92 142.04 81.55 117.45 29.38"/>
  <polygon class="cls-3" points="41.34 60.91 25.4 59.58 16.28 72.72 23.1 87.18 39.04 88.51 48.16 75.37 41.34 60.91"/>
  <polygon class="cls-3" points="127.12 22.14 111.19 20.82 102.07 33.95 108.89 48.42 124.82 49.75 133.94 36.61 127.12 22.14"/>
  <polygon class="cls-3" points="117.54 110.3 101.6 108.97 92.48 122.11 99.3 136.58 115.24 137.9 124.35 124.76 117.54 110.3"/>
  <polygon class="cls-3" points="95.25 64.59 79.31 63.26 70.19 76.4 77.01 90.87 92.95 92.2 102.07 79.06 95.25 64.59"/>
  <polygon class="cls-3" points="204.79 58.65 195.29 56.1 188.33 63.06 190.87 72.57 200.38 75.12 207.34 68.16 204.79 58.65"/>
  <polygon class="cls-3" points="186.51 126.9 177 124.35 170.04 131.31 172.59 140.82 182.09 143.37 189.05 136.41 186.51 126.9"/>
</svg>