<?xml version="1.0" encoding="UTF-8"?>
<svg id="Layer_1" data-name="Layer 1" xmlns="http://www.w3.org/2000/svg" viewBox="0 0 213.25 187.78">
  <defs>
    <style>
      .cls-1 {
        fill: #939598;
      }

      .cls-2 {
        fill: #6d6e71;
      }

      .cls-3 {
        fill: #808285;
      }
    </style>
  </defs>
  <polygon class="cls-2" points="142.25 25.24 101.26 66.23 116.26 122.23 172.26 137.23 213.25 96.24 198.25 40.24 142.25 25.24"/>
  <polygon class="cls-2" points="0 146.79 40.99 187.78 96.99 172.78 111.99 116.78 71 75.79 15 90.79 0 146.79"/>
  <polygon class="cls-1" points="18.7 141.78 46 169.08 83.3 159.09 93.29 121.79 65.99 94.49 28.69 104.48 18.7 141.78"/>
  <polygon class="cls-1" points="147.72 45.65 121.67 71.7 131.2 107.29 166.79 116.82 192.84 90.77 183.31 55.18 147.72 45.65"/>
  <polygon class="cls-3" points="126.47 6.05 53.87 0 12.34 59.85 43.4 125.74 115.99 131.79 157.53 71.94 126.47 6.05"/>
  <polygon class="cls-1" points="113.16 25.22 63.83 21.11 35.6 61.78 56.71 106.56 106.04 110.67 134.27 70 113.16 25.22"/>
</svg>