<?xml version="1.0" encoding="UTF-8"?>
<svg id="Layer_1" data-name="Layer 1" xmlns="http://www.w3.org/2000/svg" viewBox="0 0 200.94 393.06">
  <defs>
    <style>
      .cls-1 {
        fill: #6d6e71;
      }

      .cls-2 {
        fill: #ffb565;
      }

      .cls-3 {
        fill: #8b5e3c;
      }

      .cls-4 {
        fill: #d1d3d4;
      }

      .cls-5 {
        fill: #414042;
      }
    </style>
  </defs>
  <path class="cls-3" d="m82.57,117.13h-6.41c-2.87,0-5.19,5.02-5.19,11.21v253.52c0,6.19,2.32,11.21,5.19,11.21h6.41c2.87,0,5.19-5.02,5.19-11.21v-253.52c0-6.19-2.32-11.21-5.19-11.21Z"/>
  <g>
    <circle class="cls-5" cx="79.09" cy="315.96" r="41.63"/>
    <circle class="cls-2" cx="79.36" cy="315.96" r="36.63"/>
  </g>
  <g>
    <circle class="cls-5" cx="79.09" cy="195.6" r="41.63"/>
    <circle class="cls-2" cx="79.36" cy="195.6" r="36.63"/>
  </g>
  <g>
    <path class="cls-1" d="m129.09,147.75c-8.03-7.81-17.08-9.13-9.44-21.59,3.28-14.07-10.88-38.63-27.57-32.22l-.34-30.69c17.02-6.62,29.73-19.13,41.3-33.56,37.44,28.52,32.32,85.35-3.95,118.07Z"/>
    <path class="cls-4" d="m129.09,147.75c-3.21-3.05-6.1-4.99-9.35-7.75,25.73-29.72,30.62-72.46,5.23-100.79,2.61-3.21,5.07-6.59,8.07-9.52,37.43,28.53,32.32,85.34-3.96,118.06Z"/>
  </g>
  <g>
    <path class="cls-1" d="m25.77,29.68c11.57,14.43,24.28,26.94,41.3,33.56l-.34,30.69c-16.69-6.41-30.85,18.16-27.57,32.22,7.64,12.46-1.41,13.78-9.44,21.59C-6.55,115.03-11.67,58.2,25.77,29.68Z"/>
    <path class="cls-4" d="m29.73,147.75c3.21-3.05,6.1-4.99,9.35-7.75-25.73-29.72-30.62-72.46-5.23-100.79-2.61-3.21-5.07-6.59-8.07-9.52-37.43,28.53-32.32,85.34,3.96,118.06Z"/>
  </g>
  <path class="cls-1" d="m84.38,50.87h-10.03c-4.48,0-8.12,1.4-8.12,3.13v70.8c0,1.73,3.64,3.13,8.12,3.13h10.03c4.48,0,8.12-1.4,8.12-3.13V54c0-1.73-3.64-3.13-8.12-3.13Z"/>
</svg>