<?xml version="1.0" encoding="UTF-8"?>
<svg id="Layer_1" data-name="Layer 1" xmlns="http://www.w3.org/2000/svg" viewBox="0 0 363.38 158.81">
  <defs>
    <style>
      .cls-1 {
        fill: #8b5e3c;
      }

      .cls-1, .cls-2, .cls-3 {
        stroke-width: 0px;
      }

      .cls-2 {
        fill: #6d6e71;
      }

      .cls-3 {
        fill: #d1d3d4;
      }
    </style>
  </defs>
  <path class="cls-1" d="M87.45,76.24v6.41c0,2.87,5.02,5.19,11.21,5.19h253.52c6.19,0,11.21-2.32,11.21-5.19v-6.41c0-2.87-5.02-5.19-11.21-5.19H98.66c-6.19,0-11.21,2.32-11.21,5.19Z"/>
  <g>
    <path class="cls-2" d="M118.07,29.72c-7.81,8.03-9.13,17.08-21.59,9.44-14.07-3.28-38.63,10.88-32.22,27.57l-30.69.34C26.94,50.05,14.43,37.34,0,25.77,28.52-11.67,85.35-6.55,118.07,29.72Z"/>
    <path class="cls-3" d="M118.07,29.73c-3.05,3.21-4.99,6.1-7.75,9.35C80.59,13.35,37.85,8.46,9.52,33.84,6.31,31.23,2.93,28.78,0,25.77,28.53-11.66,85.34-6.55,118.07,29.73Z"/>
  </g>
  <g>
    <path class="cls-2" d="M0,133.04c14.43-11.57,26.94-24.28,33.56-41.3l30.69.34c-6.41,16.69,18.16,30.85,32.22,27.57,12.46-7.64,13.78,1.41,21.59,9.44C85.35,165.36,28.52,170.48,0,133.04Z"/>
    <path class="cls-3" d="M118.07,129.09c-3.05-3.21-4.99-6.1-7.75-9.35-29.72,25.73-72.46,30.62-100.79,5.23-3.21,2.61-6.59,5.07-9.52,8.07,28.53,37.43,85.34,32.32,118.06-3.96Z"/>
  </g>
  <path class="cls-2" d="M21.19,74.43v10.03c0,4.48,1.4,8.12,3.13,8.12h70.8c1.73,0,3.13-3.64,3.13-8.12v-10.03c0-4.48-1.4-8.12-3.13-8.12H24.32c-1.73,0-3.13,3.64-3.13,8.12Z"/>
</svg>