<?xml version="1.0" encoding="UTF-8"?>
<svg id="Layer_1" data-name="Layer 1" xmlns="http://www.w3.org/2000/svg" viewBox="0 0 350 70.5">
  <defs>
    <style>
      .cls-1 {
        fill: #603913;
      }

      .cls-1, .cls-2, .cls-3, .cls-4, .cls-5 {
        stroke-width: 0px;
      }

      .cls-2 {
        fill: #939598;
      }

      .cls-3 {
        fill: #bcbec0;
      }

      .cls-4 {
        fill: #d1d3d4;
      }

      .cls-5 {
        fill: #fbb040;
      }
    </style>
  </defs>
  <polygon class="cls-4" points="17.61 26.59 212.22 26.59 212.22 43.48 17.61 43.48 0 34.93 17.61 26.59"/>
  <polygon class="cls-5" points="199.56 10.81 209.48 26.59 196.81 26.59 199.56 10.81"/>
  <polygon class="cls-5" points="199.56 59.26 209.48 43.48 196.81 43.48 199.56 59.26"/>
  <rect class="cls-1" x="221.79" y="15.53" width="20.31" height="39.44" rx="2.76" ry="2.76" transform="translate(196.69 267.19) rotate(-90)"/>
  <path class="cls-1" d="M296.35,1.32h5.37c1.52,0,2.76,1.24,2.76,2.76v65.09h-10.89V4.08c0-1.52,1.24-2.76,2.76-2.76Z" transform="translate(263.79 334.29) rotate(-90)"/>
  <g>
    <path class="cls-5" d="M251.67,35.25h17.15s0-3.43,0-3.43c0-4.46-.61-8.91-1.82-13.21L261.78,0h-.44c-3.72,0-7.25,1.62-9.67,4.44h0s4.98,8.48,4.98,8.48c.98,1.67,1.48,3.58,1.43,5.52h0c-.09,4-2.64,7.54-6.41,8.89h0v7.92Z"/>
    <path class="cls-5" d="M251.67,35.25h17.15v3.43c0,4.46-.61,8.91-1.82,13.21l-5.22,18.61h-.44c-3.72,0-7.25-1.62-9.67-4.44h0s4.98-8.48,4.98-8.48c.98-1.67,1.48-3.58,1.43-5.52h0c-.09-4-2.64-7.54-6.41-8.89h0v-7.92Z"/>
  </g>
  <path class="cls-5" d="M332.11,29.94l12.96-14.25c.5-.55,1.23-.7,1.87-.39h0c1.09.55,1.99,1.5,2.57,2.71l.07.14c.1.22.16.46.16.71l.27,16.55h-17.04s-.86,0-.86,0v-5.48Z"/>
  <path class="cls-5" d="M332.11,40.8l12.96,14.02c.5.54,1.23.69,1.87.38h0c1.09-.54,1.99-1.48,2.57-2.67l.07-.14c.1-.21.16-.45.16-.7l.27-16.28h-17.04s-.86,0-.86,0v5.39Z"/>
  <polygon class="cls-3" points="17.61 26.59 17.61 43.48 0 34.93 17.61 26.59"/>
  <rect class="cls-2" x="17.61" y="30.25" width="194.61" height="9.7"/>
  <polygon class="cls-2" points="17.61 30.25 17.61 39.95 7.03 35.04 17.61 30.25"/>
  <rect class="cls-5" x="194.69" y="25.96" width="16.89" height="18.16" transform="translate(168.1 238.18) rotate(-90)"/>
</svg>